<svg width="190" height="190" viewBox="0 0 190 190" fill="none" xmlns="http://www.w3.org/2000/svg">
<path d="M177.272 142.5C169.019 156.796 157.182 168.694 142.93 177.023C128.678 185.351 112.501 189.822 95.9948 189.995C79.4884 190.168 63.2218 186.036 48.7982 178.008C34.3745 169.98 22.2917 158.332 13.7404 144.213L46.2442 124.528C51.375 132.999 58.6247 139.988 67.2789 144.805C75.9331 149.622 85.693 152.101 95.5969 151.997C105.501 151.893 115.207 149.211 123.758 144.214C132.309 139.217 139.411 132.077 144.363 123.5L177.272 142.5Z" fill="#F0F2F2"/>
<path d="M12.7276 142.5C4.47392 128.204 0.0877333 112.005 0.00130221 95.4974C-0.0851288 78.9903 4.13118 62.7455 12.2347 48.3641C20.3382 33.9827 32.0492 21.961 46.2136 13.4838C60.378 5.00663 76.5068 0.366533 93.0105 0.0208344L93.8063 38.0125C83.9041 38.2199 74.2268 41.004 65.7282 46.0903C57.2295 51.1766 50.2029 58.3896 45.3408 67.0185C40.4787 75.6473 37.9489 85.3942 38.0008 95.2984C38.0526 105.203 40.6843 114.923 45.6366 123.5L12.7276 142.5Z" fill="#F0F2F2"/>
<path d="M12.7276 142.5C1.67415 123.355 -2.35636 100.954 1.33038 79.157L20.0643 82.3256C17.1149 99.7634 20.3393 117.684 29.1821 133L12.7276 142.5Z" fill="#0020FF"/>
<path d="M1.44326 78.5034C5.28208 56.7324 16.5934 36.9818 33.4286 22.6539L45.7429 37.1231C32.2747 48.5854 23.2257 64.3859 20.1546 81.8027L1.44326 78.5034Z" fill="#2B4CFF"/>
<path d="M33.9352 22.2258C50.87 8.01574 72.2305 0.156639 94.3368 0.0023148L94.4695 19.0019C76.7844 19.1253 59.696 25.4126 46.1482 36.7806L33.9352 22.2258Z" fill="#5F7BFE"/>
<path d="M95 0C111.507 1.96848e-07 127.73 4.30131 142.069 12.48C156.407 20.6587 168.368 32.4325 176.77 46.6411C185.173 60.8496 189.729 77.0025 189.988 93.5078C190.248 110.013 186.202 126.301 178.249 140.767L144.949 122.46C149.721 113.781 152.149 104.008 151.993 94.1047C151.837 84.2015 149.104 74.5098 144.062 65.9846C139.021 57.4595 131.844 50.3952 123.241 45.488C114.638 40.5808 104.904 38 95 38L95 0Z" fill="#F0F2F2"/>
<path d="M95 0C117.107 2.63622e-07 138.522 7.7098 155.555 21.8013L143.444 36.441C129.817 25.1678 112.686 19 95 19L95 0Z" fill="#00C782"/>
<path d="M156.065 22.2258C173 36.4358 184.449 56.107 188.439 77.8507L169.751 81.2806C166.559 63.8856 157.4 48.1487 143.852 36.7806L156.065 22.2258Z" fill="#00D39D"/>
<path d="M188.557 78.5034C192.396 100.274 188.522 122.703 177.602 141.925L161.082 132.54C169.817 117.162 172.916 99.2196 169.845 81.8028L188.557 78.5034Z" fill="#01DDB5"/>
<path d="M177.272 142.5C169.019 156.796 157.182 168.694 142.93 177.023L133.344 160.618C144.746 153.955 154.215 144.437 160.818 133L177.272 142.5Z" fill="#FF3800"/>
<path d="M142.5 177.272C128.204 185.526 112.005 189.912 95.4974 189.999L95.3979 170.999C108.604 170.93 121.563 167.421 133 160.818L142.5 177.272Z" fill="#FF6908"/>
<path d="M95 190C78.4927 190 62.2702 185.699 47.9314 177.52L57.3451 161.016C68.8162 167.559 81.7941 171 95 171L95 190Z" fill="#FF8649"/>
<path d="M47.5 177.272C33.2042 169.019 21.3058 157.182 12.9774 142.93L29.3819 133.344C36.0447 144.746 45.5634 154.215 57 160.818L47.5 177.272Z" fill="#FFA177"/>
</svg>
