<svg width="286" height="64" viewBox="0 0 286 64" fill="none" xmlns="http://www.w3.org/2000/svg">
<rect x="39" width="247" height="16" rx="8" fill="#F0F2F2"/>
<rect x="39" y="24" width="247" height="16" rx="8" fill="#F0F2F2"/>
<rect x="39" y="48" width="247" height="16" rx="8" fill="#F0F2F2"/>
<path d="M42 8C42 5.23858 44.2386 3 47 3H64V13H47C44.2386 13 42 10.7614 42 8V8Z" fill="#00D39D"/>
<path d="M42 32C42 29.2386 44.2386 27 47 27H92V37H47C44.2386 37 42 34.7614 42 32V32Z" fill="#FF6908"/>
<path d="M42 56C42 53.2386 44.2386 51 47 51H83V61H47C44.2386 61 42 58.7614 42 56V56Z" fill="#2B4CFF"/>
<path d="M6.41016 11.0801V12H1.89258V11.0801H6.41016ZM2.12109 3.46875V12H0.990234V3.46875H2.12109ZM5.8125 7.13672V8.05664H1.89258V7.13672H5.8125ZM6.35156 3.46875V4.39453H1.89258V3.46875H6.35156ZM14.373 3.46875V12H13.2363L8.94141 5.41992V12H7.81055V3.46875H8.94141L13.2539 10.0664V3.46875H14.373ZM19.1309 10.7051L21.6445 3.46875H22.8691L19.7109 12H18.8379L19.1309 10.7051ZM16.7812 3.46875L19.2715 10.7051L19.582 12H18.709L15.5566 3.46875H16.7812Z" fill="black"/>
<path d="M5.53711 33.8438C5.53711 33.6445 5.50586 33.4688 5.44336 33.3164C5.38477 33.1602 5.2793 33.0195 5.12695 32.8945C4.97852 32.7695 4.77148 32.6504 4.50586 32.5371C4.24414 32.4238 3.91211 32.3086 3.50977 32.1914C3.08789 32.0664 2.70703 31.9277 2.36719 31.7754C2.02734 31.6191 1.73633 31.4414 1.49414 31.2422C1.25195 31.043 1.06641 30.8145 0.9375 30.5566C0.808594 30.2988 0.744141 30.0039 0.744141 29.6719C0.744141 29.3398 0.8125 29.0332 0.949219 28.752C1.08594 28.4707 1.28125 28.2266 1.53516 28.0195C1.79297 27.8086 2.09961 27.6445 2.45508 27.5273C2.81055 27.4102 3.20703 27.3516 3.64453 27.3516C4.28516 27.3516 4.82812 27.4746 5.27344 27.7207C5.72266 27.9629 6.06445 28.2812 6.29883 28.6758C6.5332 29.0664 6.65039 29.4844 6.65039 29.9297H5.52539C5.52539 29.6094 5.45703 29.3262 5.32031 29.0801C5.18359 28.8301 4.97656 28.6348 4.69922 28.4941C4.42188 28.3496 4.07031 28.2773 3.64453 28.2773C3.24219 28.2773 2.91016 28.3379 2.64844 28.459C2.38672 28.5801 2.19141 28.7441 2.0625 28.9512C1.9375 29.1582 1.875 29.3945 1.875 29.6602C1.875 29.8398 1.91211 30.0039 1.98633 30.1523C2.06445 30.2969 2.18359 30.4316 2.34375 30.5566C2.50781 30.6816 2.71484 30.7969 2.96484 30.9023C3.21875 31.0078 3.52148 31.1094 3.87305 31.207C4.35742 31.3438 4.77539 31.4961 5.12695 31.6641C5.47852 31.832 5.76758 32.0215 5.99414 32.2324C6.22461 32.4395 6.39453 32.6758 6.50391 32.9414C6.61719 33.2031 6.67383 33.5 6.67383 33.832C6.67383 34.1797 6.60352 34.4941 6.46289 34.7754C6.32227 35.0566 6.12109 35.2969 5.85938 35.4961C5.59766 35.6953 5.2832 35.8496 4.91602 35.959C4.55273 36.0645 4.14648 36.1172 3.69727 36.1172C3.30273 36.1172 2.91406 36.0625 2.53125 35.9531C2.15234 35.8438 1.80664 35.6797 1.49414 35.4609C1.18555 35.2422 0.9375 34.9727 0.75 34.6523C0.566406 34.3281 0.474609 33.9531 0.474609 33.5273H1.59961C1.59961 33.8203 1.65625 34.0723 1.76953 34.2832C1.88281 34.4902 2.03711 34.6621 2.23242 34.7988C2.43164 34.9355 2.65625 35.0371 2.90625 35.1035C3.16016 35.166 3.42383 35.1973 3.69727 35.1973C4.0918 35.1973 4.42578 35.1426 4.69922 35.0332C4.97266 34.9238 5.17969 34.7676 5.32031 34.5645C5.46484 34.3613 5.53711 34.1211 5.53711 33.8438ZM14.6836 31.4648V32.0039C14.6836 32.6445 14.6035 33.2188 14.4434 33.7266C14.2832 34.2344 14.0527 34.666 13.752 35.0215C13.4512 35.377 13.0898 35.6484 12.668 35.8359C12.25 36.0234 11.7812 36.1172 11.2617 36.1172C10.7578 36.1172 10.2949 36.0234 9.87305 35.8359C9.45508 35.6484 9.0918 35.377 8.7832 35.0215C8.47852 34.666 8.24219 34.2344 8.07422 33.7266C7.90625 33.2188 7.82227 32.6445 7.82227 32.0039V31.4648C7.82227 30.8242 7.9043 30.252 8.06836 29.748C8.23633 29.2402 8.47266 28.8086 8.77734 28.4531C9.08203 28.0938 9.44336 27.8203 9.86133 27.6328C10.2832 27.4453 10.7461 27.3516 11.25 27.3516C11.7695 27.3516 12.2383 27.4453 12.6562 27.6328C13.0781 27.8203 13.4395 28.0938 13.7402 28.4531C14.0449 28.8086 14.2773 29.2402 14.4375 29.748C14.6016 30.252 14.6836 30.8242 14.6836 31.4648ZM13.5645 32.0039V31.4531C13.5645 30.9453 13.5117 30.4961 13.4062 30.1055C13.3047 29.7148 13.1543 29.3867 12.9551 29.1211C12.7559 28.8555 12.5117 28.6543 12.2227 28.5176C11.9375 28.3809 11.6133 28.3125 11.25 28.3125C10.8984 28.3125 10.5801 28.3809 10.2949 28.5176C10.0137 28.6543 9.77148 28.8555 9.56836 29.1211C9.36914 29.3867 9.21484 29.7148 9.10547 30.1055C8.99609 30.4961 8.94141 30.9453 8.94141 31.4531V32.0039C8.94141 32.5156 8.99609 32.9688 9.10547 33.3633C9.21484 33.7539 9.37109 34.084 9.57422 34.3535C9.78125 34.6191 10.0254 34.8203 10.3066 34.957C10.5918 35.0938 10.9102 35.1621 11.2617 35.1621C11.6289 35.1621 11.9551 35.0938 12.2402 34.957C12.5254 34.8203 12.7656 34.6191 12.9609 34.3535C13.1602 34.084 13.3105 33.7539 13.4121 33.3633C13.5137 32.9688 13.5645 32.5156 13.5645 32.0039ZM21.5273 33.2871H22.6523C22.5938 33.8262 22.4395 34.3086 22.1895 34.7344C21.9395 35.1602 21.5859 35.498 21.1289 35.748C20.6719 35.9941 20.1016 36.1172 19.418 36.1172C18.918 36.1172 18.4629 36.0234 18.0527 35.8359C17.6465 35.6484 17.2969 35.3828 17.0039 35.0391C16.7109 34.6914 16.4844 34.2754 16.3242 33.791C16.168 33.3027 16.0898 32.7598 16.0898 32.1621V31.3125C16.0898 30.7148 16.168 30.1738 16.3242 29.6895C16.4844 29.2012 16.7129 28.7832 17.0098 28.4355C17.3105 28.0879 17.6719 27.8203 18.0938 27.6328C18.5156 27.4453 18.9902 27.3516 19.5176 27.3516C20.1621 27.3516 20.707 27.4727 21.1523 27.7148C21.5977 27.957 21.9434 28.293 22.1895 28.7227C22.4395 29.1484 22.5938 29.6426 22.6523 30.2051H21.5273C21.4727 29.8066 21.3711 29.4648 21.2227 29.1797C21.0742 28.8906 20.8633 28.668 20.5898 28.5117C20.3164 28.3555 19.959 28.2773 19.5176 28.2773C19.1387 28.2773 18.8047 28.3496 18.5156 28.4941C18.2305 28.6387 17.9902 28.8438 17.7949 29.1094C17.6035 29.375 17.459 29.6934 17.3613 30.0645C17.2637 30.4355 17.2148 30.8477 17.2148 31.3008V32.1621C17.2148 32.5801 17.2578 32.9727 17.3438 33.3398C17.4336 33.707 17.5684 34.0293 17.748 34.3066C17.9277 34.584 18.1562 34.8027 18.4336 34.9629C18.7109 35.1191 19.0391 35.1973 19.418 35.1973C19.8984 35.1973 20.2812 35.1211 20.5664 34.9688C20.8516 34.8164 21.0664 34.5977 21.2109 34.3125C21.3594 34.0273 21.4648 33.6855 21.5273 33.2871Z" fill="black"/>
<path d="M7.29492 55.752V58.875C7.18945 59.0312 7.02148 59.207 6.79102 59.4023C6.56055 59.5938 6.24219 59.7617 5.83594 59.9062C5.43359 60.0469 4.91406 60.1172 4.27734 60.1172C3.75781 60.1172 3.2793 60.0273 2.8418 59.8477C2.4082 59.6641 2.03125 59.3984 1.71094 59.0508C1.39453 58.6992 1.14844 58.2734 0.972656 57.7734C0.800781 57.2695 0.714844 56.6992 0.714844 56.0625V55.4004C0.714844 54.7637 0.789062 54.1953 0.9375 53.6953C1.08984 53.1953 1.3125 52.7715 1.60547 52.4238C1.89844 52.0723 2.25781 51.8066 2.68359 51.627C3.10938 51.4434 3.59766 51.3516 4.14844 51.3516C4.80078 51.3516 5.3457 51.4648 5.7832 51.6914C6.22461 51.9141 6.56836 52.2227 6.81445 52.6172C7.06445 53.0117 7.22461 53.4609 7.29492 53.9648H6.16406C6.11328 53.6562 6.01172 53.375 5.85938 53.1211C5.71094 52.8672 5.49805 52.6641 5.2207 52.5117C4.94336 52.3555 4.58594 52.2773 4.14844 52.2773C3.75391 52.2773 3.41211 52.3496 3.12305 52.4941C2.83398 52.6387 2.5957 52.8457 2.4082 53.1152C2.2207 53.3848 2.08008 53.7109 1.98633 54.0938C1.89648 54.4766 1.85156 54.9082 1.85156 55.3887V56.0625C1.85156 56.5547 1.9082 56.9941 2.02148 57.3809C2.13867 57.7676 2.30469 58.0977 2.51953 58.3711C2.73438 58.6406 2.99023 58.8457 3.28711 58.9863C3.58789 59.127 3.91992 59.1973 4.2832 59.1973C4.68555 59.1973 5.01172 59.1641 5.26172 59.0977C5.51172 59.0273 5.70703 58.9453 5.84766 58.8516C5.98828 58.7539 6.0957 58.6621 6.16992 58.5762V56.666H4.19531V55.752H7.29492ZM15.7383 55.4648V56.0039C15.7383 56.6445 15.6582 57.2188 15.498 57.7266C15.3379 58.2344 15.1074 58.666 14.8066 59.0215C14.5059 59.377 14.1445 59.6484 13.7227 59.8359C13.3047 60.0234 12.8359 60.1172 12.3164 60.1172C11.8125 60.1172 11.3496 60.0234 10.9277 59.8359C10.5098 59.6484 10.1465 59.377 9.83789 59.0215C9.5332 58.666 9.29688 58.2344 9.12891 57.7266C8.96094 57.2188 8.87695 56.6445 8.87695 56.0039V55.4648C8.87695 54.8242 8.95898 54.252 9.12305 53.748C9.29102 53.2402 9.52734 52.8086 9.83203 52.4531C10.1367 52.0938 10.498 51.8203 10.916 51.6328C11.3379 51.4453 11.8008 51.3516 12.3047 51.3516C12.8242 51.3516 13.293 51.4453 13.7109 51.6328C14.1328 51.8203 14.4941 52.0938 14.7949 52.4531C15.0996 52.8086 15.332 53.2402 15.4922 53.748C15.6562 54.252 15.7383 54.8242 15.7383 55.4648ZM14.6191 56.0039V55.4531C14.6191 54.9453 14.5664 54.4961 14.4609 54.1055C14.3594 53.7148 14.209 53.3867 14.0098 53.1211C13.8105 52.8555 13.5664 52.6543 13.2773 52.5176C12.9922 52.3809 12.668 52.3125 12.3047 52.3125C11.9531 52.3125 11.6348 52.3809 11.3496 52.5176C11.0684 52.6543 10.8262 52.8555 10.623 53.1211C10.4238 53.3867 10.2695 53.7148 10.1602 54.1055C10.0508 54.4961 9.99609 54.9453 9.99609 55.4531V56.0039C9.99609 56.5156 10.0508 56.9688 10.1602 57.3633C10.2695 57.7539 10.4258 58.084 10.6289 58.3535C10.8359 58.6191 11.0801 58.8203 11.3613 58.957C11.6465 59.0938 11.9648 59.1621 12.3164 59.1621C12.6836 59.1621 13.0098 59.0938 13.2949 58.957C13.5801 58.8203 13.8203 58.6191 14.0156 58.3535C14.2148 58.084 14.3652 57.7539 14.4668 57.3633C14.5684 56.9688 14.6191 56.5156 14.6191 56.0039ZM20.0566 58.7051L22.5703 51.4688H23.7949L20.6367 60H19.7637L20.0566 58.7051ZM17.707 51.4688L20.1973 58.7051L20.5078 60H19.6348L16.4824 51.4688H17.707Z" fill="black"/>
<path d="M85.7334 7.61621L85.0107 7.43066L85.3672 3.89062H89.0146V4.72559H86.1338L85.9189 6.65918C86.0492 6.58431 86.2135 6.51432 86.4121 6.44922C86.6139 6.38411 86.8451 6.35156 87.1055 6.35156C87.4342 6.35156 87.7288 6.40853 87.9893 6.52246C88.2497 6.63314 88.471 6.79264 88.6533 7.00098C88.8389 7.20931 88.9805 7.45996 89.0781 7.75293C89.1758 8.0459 89.2246 8.37305 89.2246 8.73438C89.2246 9.07617 89.1774 9.3903 89.083 9.67676C88.9919 9.96322 88.8535 10.2139 88.668 10.4287C88.4824 10.6403 88.248 10.8047 87.9648 10.9219C87.6849 11.0391 87.3545 11.0977 86.9736 11.0977C86.6872 11.0977 86.4154 11.0586 86.1582 10.9805C85.9043 10.8991 85.6764 10.777 85.4746 10.6143C85.276 10.4482 85.1133 10.2432 84.9863 9.99902C84.8626 9.75163 84.7845 9.46191 84.752 9.12988H85.6113C85.6504 9.39681 85.7285 9.62142 85.8457 9.80371C85.9629 9.986 86.1159 10.1243 86.3047 10.2188C86.4967 10.3099 86.7197 10.3555 86.9736 10.3555C87.1885 10.3555 87.3789 10.318 87.5449 10.2432C87.7109 10.1683 87.8509 10.0609 87.9648 9.9209C88.0788 9.78092 88.165 9.61165 88.2236 9.41309C88.2855 9.21452 88.3164 8.99154 88.3164 8.74414C88.3164 8.51953 88.2855 8.3112 88.2236 8.11914C88.1618 7.92708 88.069 7.75944 87.9453 7.61621C87.8249 7.47298 87.6768 7.3623 87.501 7.28418C87.3252 7.2028 87.1234 7.16211 86.8955 7.16211C86.5928 7.16211 86.3633 7.2028 86.207 7.28418C86.054 7.36556 85.8962 7.47624 85.7334 7.61621ZM90.3281 10.5215C90.3281 10.3685 90.3753 10.2399 90.4697 10.1357C90.5674 10.0283 90.7074 9.97461 90.8896 9.97461C91.0719 9.97461 91.2103 10.0283 91.3047 10.1357C91.4023 10.2399 91.4512 10.3685 91.4512 10.5215C91.4512 10.6712 91.4023 10.7982 91.3047 10.9023C91.2103 11.0065 91.0719 11.0586 90.8896 11.0586C90.7074 11.0586 90.5674 11.0065 90.4697 10.9023C90.3753 10.7982 90.3281 10.6712 90.3281 10.5215ZM97.3154 6.87891V7.96289C97.3154 8.54557 97.2633 9.03711 97.1592 9.4375C97.055 9.83789 96.9053 10.1602 96.71 10.4043C96.5146 10.6484 96.2786 10.8258 96.002 10.9365C95.7285 11.0439 95.4193 11.0977 95.0742 11.0977C94.8008 11.0977 94.5485 11.0635 94.3174 10.9951C94.0863 10.9268 93.8779 10.8177 93.6924 10.668C93.5101 10.515 93.3538 10.3164 93.2236 10.0723C93.0934 9.82812 92.9941 9.5319 92.9258 9.18359C92.8574 8.83529 92.8232 8.42839 92.8232 7.96289V6.87891C92.8232 6.29622 92.8753 5.80794 92.9795 5.41406C93.0869 5.02018 93.2383 4.70443 93.4336 4.4668C93.6289 4.22591 93.8633 4.05339 94.1367 3.94922C94.4134 3.84505 94.7227 3.79297 95.0645 3.79297C95.3411 3.79297 95.5951 3.82715 95.8262 3.89551C96.0605 3.96061 96.2689 4.06641 96.4512 4.21289C96.6335 4.35612 96.7881 4.54818 96.915 4.78906C97.0452 5.02669 97.1445 5.31803 97.2129 5.66309C97.2812 6.00814 97.3154 6.41341 97.3154 6.87891ZM96.4072 8.10938V6.72754C96.4072 6.40853 96.3877 6.12858 96.3486 5.8877C96.3128 5.64355 96.2591 5.43522 96.1875 5.2627C96.1159 5.09017 96.0247 4.9502 95.9141 4.84277C95.8066 4.73535 95.6813 4.65723 95.5381 4.6084C95.3981 4.55632 95.2402 4.53027 95.0645 4.53027C94.8496 4.53027 94.6592 4.57096 94.4932 4.65234C94.3271 4.73047 94.1872 4.85579 94.0732 5.02832C93.9626 5.20085 93.8779 5.42708 93.8193 5.70703C93.7607 5.98698 93.7314 6.32715 93.7314 6.72754V8.10938C93.7314 8.42839 93.7493 8.70996 93.7852 8.9541C93.8242 9.19824 93.8812 9.40983 93.9561 9.58887C94.0309 9.76465 94.1221 9.90951 94.2295 10.0234C94.3369 10.1374 94.4606 10.222 94.6006 10.2773C94.7438 10.3294 94.9017 10.3555 95.0742 10.3555C95.2956 10.3555 95.4893 10.3132 95.6553 10.2285C95.8213 10.1439 95.9596 10.012 96.0703 9.83301C96.1842 9.65072 96.2689 9.41797 96.3242 9.13477C96.3796 8.84831 96.4072 8.50651 96.4072 8.10938Z" fill="black"/>
<path d="M115.56 28.8516V36H114.656V29.9795L112.835 30.6436V29.8281L115.418 28.8516H115.56ZM122.874 35.2578V36H118.221V35.3506L120.55 32.7578C120.836 32.4388 121.058 32.1686 121.214 31.9473C121.373 31.7227 121.484 31.5225 121.546 31.3467C121.611 31.1676 121.644 30.9854 121.644 30.7998C121.644 30.5654 121.595 30.3538 121.497 30.165C121.403 29.973 121.263 29.82 121.077 29.7061C120.892 29.5921 120.667 29.5352 120.403 29.5352C120.088 29.5352 119.824 29.597 119.612 29.7207C119.404 29.8411 119.248 30.0104 119.144 30.2285C119.039 30.4466 118.987 30.6973 118.987 30.9805H118.084C118.084 30.5801 118.172 30.2139 118.348 29.8818C118.523 29.5498 118.784 29.2861 119.129 29.0908C119.474 28.8923 119.899 28.793 120.403 28.793C120.853 28.793 121.237 28.8727 121.556 29.0322C121.875 29.1885 122.119 29.4098 122.288 29.6963C122.461 29.9795 122.547 30.3115 122.547 30.6924C122.547 30.9007 122.511 31.1123 122.439 31.3271C122.371 31.5387 122.275 31.7503 122.151 31.9619C122.031 32.1735 121.889 32.3818 121.727 32.5869C121.567 32.792 121.396 32.9938 121.214 33.1924L119.31 35.2578H122.874ZM123.953 35.5215C123.953 35.3685 124 35.2399 124.095 35.1357C124.192 35.0283 124.332 34.9746 124.515 34.9746C124.697 34.9746 124.835 35.0283 124.93 35.1357C125.027 35.2399 125.076 35.3685 125.076 35.5215C125.076 35.6712 125.027 35.7982 124.93 35.9023C124.835 36.0065 124.697 36.0586 124.515 36.0586C124.332 36.0586 124.192 36.0065 124.095 35.9023C124 35.7982 123.953 35.6712 123.953 35.5215ZM127.62 32.6162L126.897 32.4307L127.254 28.8906H130.901V29.7256H128.021L127.806 31.6592C127.936 31.5843 128.1 31.5143 128.299 31.4492C128.501 31.3841 128.732 31.3516 128.992 31.3516C129.321 31.3516 129.616 31.4085 129.876 31.5225C130.136 31.6331 130.358 31.7926 130.54 32.001C130.726 32.2093 130.867 32.46 130.965 32.7529C131.062 33.0459 131.111 33.373 131.111 33.7344C131.111 34.0762 131.064 34.3903 130.97 34.6768C130.879 34.9632 130.74 35.2139 130.555 35.4287C130.369 35.6403 130.135 35.8047 129.852 35.9219C129.572 36.0391 129.241 36.0977 128.86 36.0977C128.574 36.0977 128.302 36.0586 128.045 35.9805C127.791 35.8991 127.563 35.777 127.361 35.6143C127.163 35.4482 127 35.2432 126.873 34.999C126.749 34.7516 126.671 34.4619 126.639 34.1299H127.498C127.537 34.3968 127.615 34.6214 127.732 34.8037C127.85 34.986 128.003 35.1243 128.191 35.2188C128.383 35.3099 128.606 35.3555 128.86 35.3555C129.075 35.3555 129.266 35.318 129.432 35.2432C129.598 35.1683 129.738 35.0609 129.852 34.9209C129.965 34.7809 130.052 34.6117 130.11 34.4131C130.172 34.2145 130.203 33.9915 130.203 33.7441C130.203 33.5195 130.172 33.3112 130.11 33.1191C130.049 32.9271 129.956 32.7594 129.832 32.6162C129.712 32.473 129.563 32.3623 129.388 32.2842C129.212 32.2028 129.01 32.1621 128.782 32.1621C128.479 32.1621 128.25 32.2028 128.094 32.2842C127.941 32.3656 127.783 32.4762 127.62 32.6162Z" fill="black"/>
<path d="M108.186 52.8906V53.3984L105.241 60H104.289L107.229 53.6328H103.381V52.8906H108.186ZM109.328 59.5215C109.328 59.3685 109.375 59.2399 109.47 59.1357C109.567 59.0283 109.707 58.9746 109.89 58.9746C110.072 58.9746 110.21 59.0283 110.305 59.1357C110.402 59.2399 110.451 59.3685 110.451 59.5215C110.451 59.6712 110.402 59.7982 110.305 59.9023C110.21 60.0065 110.072 60.0586 109.89 60.0586C109.707 60.0586 109.567 60.0065 109.47 59.9023C109.375 59.7982 109.328 59.6712 109.328 59.5215ZM116.335 58.0762C116.335 58.5091 116.234 58.877 116.032 59.1797C115.834 59.4792 115.563 59.707 115.222 59.8633C114.883 60.0195 114.501 60.0977 114.074 60.0977C113.648 60.0977 113.264 60.0195 112.922 59.8633C112.58 59.707 112.31 59.4792 112.111 59.1797C111.913 58.877 111.813 58.5091 111.813 58.0762C111.813 57.793 111.867 57.5342 111.975 57.2998C112.085 57.0622 112.24 56.8555 112.438 56.6797C112.64 56.5039 112.878 56.3688 113.151 56.2744C113.428 56.1768 113.732 56.1279 114.064 56.1279C114.501 56.1279 114.89 56.2126 115.231 56.3818C115.573 56.5479 115.842 56.7773 116.037 57.0703C116.236 57.3633 116.335 57.6986 116.335 58.0762ZM115.427 58.0566C115.427 57.793 115.37 57.5602 115.256 57.3584C115.142 57.1533 114.982 56.9938 114.777 56.8799C114.572 56.766 114.335 56.709 114.064 56.709C113.788 56.709 113.549 56.766 113.347 56.8799C113.148 56.9938 112.993 57.1533 112.883 57.3584C112.772 57.5602 112.717 57.793 112.717 58.0566C112.717 58.3301 112.771 58.5645 112.878 58.7598C112.989 58.9518 113.145 59.0999 113.347 59.2041C113.552 59.305 113.794 59.3555 114.074 59.3555C114.354 59.3555 114.595 59.305 114.797 59.2041C114.999 59.0999 115.153 58.9518 115.261 58.7598C115.371 58.5645 115.427 58.3301 115.427 58.0566ZM116.169 54.7412C116.169 55.0863 116.078 55.3971 115.896 55.6738C115.713 55.9505 115.464 56.1686 115.148 56.3281C114.833 56.4876 114.475 56.5674 114.074 56.5674C113.667 56.5674 113.304 56.4876 112.985 56.3281C112.67 56.1686 112.422 55.9505 112.243 55.6738C112.064 55.3971 111.975 55.0863 111.975 54.7412C111.975 54.3278 112.064 53.9762 112.243 53.6865C112.425 53.3968 112.674 53.1755 112.99 53.0225C113.306 52.8695 113.666 52.793 114.069 52.793C114.476 52.793 114.838 52.8695 115.153 53.0225C115.469 53.1755 115.716 53.3968 115.896 53.6865C116.078 53.9762 116.169 54.3278 116.169 54.7412ZM115.266 54.7559C115.266 54.5182 115.215 54.3083 115.114 54.126C115.013 53.9437 114.873 53.8005 114.694 53.6963C114.515 53.5889 114.307 53.5352 114.069 53.5352C113.832 53.5352 113.623 53.5856 113.444 53.6865C113.269 53.7842 113.13 53.9242 113.029 54.1064C112.932 54.2887 112.883 54.5052 112.883 54.7559C112.883 55 112.932 55.2132 113.029 55.3955C113.13 55.5778 113.27 55.7194 113.449 55.8203C113.628 55.9212 113.837 55.9717 114.074 55.9717C114.312 55.9717 114.519 55.9212 114.694 55.8203C114.873 55.7194 115.013 55.5778 115.114 55.3955C115.215 55.2132 115.266 55 115.266 54.7559Z" fill="black"/>
</svg>
