<svg width="67" height="18" viewBox="0 0 67 18" fill="none" xmlns="http://www.w3.org/2000/svg">
<path d="M5.2 14.54L5.32 11.14C4.04 10.98 2.96667 10.5467 2.1 9.84C1.23333 9.13333 0.8 8.18667 0.8 7C0.8 6.02667 1.28 5.08667 2.24 4.18C3.2 3.26 4.34667 2.8 5.68 2.8C7.64 2.8 8.62 4.07333 8.62 6.62C8.62 7.36667 8.56667 8.51333 8.46 10.06C8.36667 11.5933 8.32 12.7533 8.32 13.54C8.32 14.3267 8.53333 14.72 8.96 14.72C9.21333 14.72 9.58 14.5067 10.06 14.08C10.5533 13.64 10.9667 13.1667 11.3 12.66C11.5933 9.64667 11.74 7.84667 11.74 7.26C11.74 6.67333 11.7333 6.27333 11.72 6.06C11.72 5.84667 11.7067 5.64 11.68 5.44C11.6667 5.24 11.6533 5.09333 11.64 5C11.64 4.89333 11.6133 4.75333 11.56 4.58C11.52 4.40667 11.4933 4.30667 11.48 4.28C11.48 4.25333 11.4467 4.14 11.38 3.94C11.3267 3.74 11.3 3.63333 11.3 3.62C11.98 3.26 13.0933 2.98667 14.64 2.8V2.82C14.7867 3.28667 14.86 3.96 14.86 4.84C14.86 5.70667 14.7267 7.22 14.46 9.38C14.1933 11.54 14.06 12.9733 14.06 13.68C14.06 14.3733 14.26 14.72 14.66 14.72C15.0733 14.72 15.5667 14.36 16.14 13.64C16.7267 12.92 17.26 11.98 17.74 10.82C18.2333 9.66 18.54 8.53333 18.66 7.44C18.66 6.36 18.0933 5.11333 16.96 3.7C17.2267 3.12667 17.5733 2.61333 18 2.16C18.4267 1.69333 18.7867 1.37333 19.08 1.2L19.52 0.92C20.0133 0.92 20.4333 1.27333 20.78 1.98C21.14 2.67333 21.32 3.49333 21.32 4.44C21.32 5.37333 21.0667 6.58 20.56 8.06C20.0533 9.52667 19.4133 10.94 18.64 12.3C17.88 13.66 16.98 14.8267 15.94 15.8C14.9133 16.76 13.9333 17.24 13 17.24C12.52 17.24 12.1 17 11.74 16.52C11.38 16.04 11.1933 15.4267 11.18 14.68C10.6067 15.48 10 16.1067 9.36 16.56C8.72 17.0133 8.08 17.24 7.44 17.24C6.8 17.24 6.26667 16.98 5.84 16.46C5.41333 15.94 5.2 15.3 5.2 14.54ZM5.5 6.66C5.5 5.83333 5.42 5.27333 5.26 4.98C5.11333 4.67333 4.82 4.52 4.38 4.52C3.95333 4.52 3.45333 4.76 2.88 5.24C2.32 5.72 2.04 6.34667 2.04 7.12C2.04 7.89333 2.37333 8.53333 3.04 9.04C3.72 9.54667 4.50667 9.8 5.4 9.8C5.46667 8.53333 5.5 7.48667 5.5 6.66ZM23.3453 17.24C22.4253 17.24 21.7053 16.92 21.1853 16.28C20.6653 15.6267 20.4053 14.72 20.4053 13.56C20.4053 12.08 20.7986 10.8067 21.5853 9.74C22.3853 8.67333 23.4853 8.14 24.8853 8.14L25.6053 8.18C25.832 8.06 26.0853 8 26.3653 8C27.4186 8 27.9453 8.99333 27.9453 10.98C28.492 10.9533 29.0453 10.88 29.6053 10.76L29.9253 10.68L30.0453 11.46C29.6053 11.6467 29.012 11.8133 28.2653 11.96L27.8653 12.04C27.612 13.44 27.0986 14.66 26.3253 15.7C25.552 16.7267 24.5586 17.24 23.3453 17.24ZM24.4253 15.52C24.9853 15.52 25.4853 15.16 25.9253 14.44C26.3786 13.72 26.692 12.96 26.8653 12.16C25.4386 12.16 24.7253 11.6267 24.7253 10.56C24.7253 10.1333 24.812 9.73333 24.9853 9.36L25.0853 9.16C25.032 9.13333 24.9653 9.12 24.8853 9.12C24.8053 9.12 24.7453 9.13333 24.7053 9.16C24.372 9.37333 24.0586 9.87333 23.7653 10.66C23.472 11.4467 23.3253 12.3467 23.3253 13.36C23.3253 14.8 23.692 15.52 24.4253 15.52ZM28.8555 17.06H28.7155C28.6888 16.9533 28.6755 16.7133 28.6755 16.34C28.6755 15.9533 28.8555 14.9267 29.2155 13.26C29.5755 11.5933 29.7555 10.64 29.7555 10.4C29.7555 9.98667 29.5688 9.53333 29.1955 9.04L29.0155 8.8L29.0355 8.54C29.7555 8.34 30.9088 8.24 32.4955 8.24C32.6555 8.58667 32.7355 9.07333 32.7355 9.7C32.8821 9.46 33.1888 9.14 33.6555 8.74C34.1221 8.34 34.6021 8.14 35.0955 8.14C35.8155 8.14 36.1755 8.76667 36.1755 10.02C36.1088 10.1 36.0155 10.2067 35.8955 10.34C35.7888 10.46 35.5621 10.6333 35.2155 10.86C34.8821 11.0867 34.5555 11.2267 34.2355 11.28C34.2221 11.28 34.1088 11.1 33.8955 10.74C33.6821 10.38 33.5221 10.2 33.4155 10.2C33.0821 10.32 32.7888 10.52 32.5355 10.8C31.9221 13.56 31.6155 15.3467 31.6155 16.16C31.6155 16.4533 31.6221 16.66 31.6355 16.78C31.1688 16.9667 30.2421 17.06 28.8555 17.06ZM42.3913 8.38C42.3646 8.71333 42.2513 9.1 42.0513 9.54C41.5446 9.48667 41.0646 9.46 40.6113 9.46H40.2513C39.6379 12.4333 39.3313 14.2867 39.3313 15.02C39.3313 15.4067 39.4113 15.6 39.5713 15.6C39.7446 15.6 40.1913 15.4333 40.9113 15.1L41.2713 15.76C40.0846 16.7467 38.9846 17.24 37.9713 17.24C37.5046 17.24 37.1179 17.0933 36.8113 16.8C36.5179 16.5067 36.3713 16.12 36.3713 15.64C36.3713 15.1467 36.4246 14.5933 36.5313 13.98C36.6513 13.3667 36.8113 12.62 37.0113 11.74C37.2113 10.8467 37.3579 10.1267 37.4513 9.58C36.9579 9.62 36.5913 9.66 36.3513 9.7C36.3246 9.54 36.3113 9.32667 36.3113 9.06C36.3113 8.78 36.3313 8.55333 36.3713 8.38H37.6313C37.7379 7.66 37.7913 6.98 37.7913 6.34L37.7713 5.72V5.66C38.8113 5.3 39.7913 5.12 40.7113 5.12C40.7646 5.38667 40.7913 5.72 40.7913 6.12C40.7913 6.52 40.6779 7.27333 40.4513 8.38H42.3913ZM44.3697 3.8C44.3697 3.36 44.3297 3.04667 44.2497 2.86C45.2897 2.5 46.2697 2.32 47.1897 2.32C47.3097 2.44 47.3697 2.74667 47.3697 3.24C47.3697 4.12 46.9964 6.14667 46.2497 9.32C47.3297 8.53333 48.2764 8.14 49.0897 8.14C49.5964 8.14 49.9764 8.3 50.2297 8.62C50.4964 8.94 50.6297 9.36667 50.6297 9.9C50.6297 10.42 50.4764 11.28 50.1697 12.48C49.863 13.6667 49.7097 14.48 49.7097 14.92C49.7097 15.36 49.763 15.58 49.8697 15.58C49.9764 15.58 50.2564 15.46 50.7097 15.22L50.9497 15.1L51.3097 15.8C51.1897 15.9067 51.0297 16.04 50.8297 16.2C50.6297 16.36 50.263 16.5733 49.7297 16.84C49.1964 17.1067 48.703 17.24 48.2497 17.24C47.8097 17.24 47.4564 17.1 47.1897 16.82C46.923 16.5267 46.7897 16.14 46.7897 15.66C46.7897 15.1667 46.9364 14.28 47.2297 13C47.5364 11.7067 47.6897 10.8933 47.6897 10.56C47.6897 10.2133 47.5497 10.04 47.2697 10.04C46.923 10.04 46.4897 10.1867 45.9697 10.48C45.2364 13.7067 44.8697 15.8 44.8697 16.76C44.3097 16.9733 43.3564 17.08 42.0097 17.08C41.9964 16.8533 41.9897 16.6533 41.9897 16.48C41.9897 15.9067 42.383 13.9467 43.1697 10.6C43.9697 7.25333 44.3697 4.98667 44.3697 3.8ZM56.8116 3.04C58.6249 3.04 59.5316 4.35333 59.5316 6.98C59.5316 8.75333 59.2382 10.5733 58.6516 12.44C58.3449 13.4133 57.9782 14.3 57.5516 15.1C57.1382 15.8867 56.6116 16.5267 55.9716 17.02C55.3449 17.5267 54.6582 17.78 53.9116 17.78C53.1782 17.78 52.5916 17.54 52.1516 17.06C51.7116 16.5933 51.4916 15.9867 51.4916 15.24C51.4916 14.1733 51.9249 13.1867 52.7916 12.28C53.6716 11.3733 54.7849 10.6133 56.1316 10C56.3182 8.97333 56.4116 8.01333 56.4116 7.12C56.4116 6.21333 56.3249 5.59333 56.1516 5.26C55.9782 4.92667 55.7249 4.76 55.3916 4.76C55.0716 4.76 54.6849 4.84667 54.2316 5.02C53.7782 5.19333 53.3449 5.42667 52.9316 5.72L52.3916 4.92C52.9516 4.42667 53.6382 3.99333 54.4516 3.62C55.2782 3.23333 56.0649 3.04 56.8116 3.04ZM55.9316 11.56C55.1182 11.9067 54.4249 12.3933 53.8516 13.02C53.2782 13.6333 52.9916 14.26 52.9916 14.9C52.9916 15.5267 53.2382 15.84 53.7316 15.84C54.1582 15.8267 54.5649 15.48 54.9516 14.8C55.3516 14.1067 55.6782 13.0267 55.9316 11.56ZM66.1803 8.38C66.1536 8.71333 66.0403 9.1 65.8403 9.54C65.3336 9.48667 64.8536 9.46 64.4003 9.46H64.0403C63.427 12.4333 63.1203 14.2867 63.1203 15.02C63.1203 15.4067 63.2003 15.6 63.3603 15.6C63.5336 15.6 63.9803 15.4333 64.7003 15.1L65.0603 15.76C63.8736 16.7467 62.7736 17.24 61.7603 17.24C61.2936 17.24 60.907 17.0933 60.6003 16.8C60.307 16.5067 60.1603 16.12 60.1603 15.64C60.1603 15.1467 60.2136 14.5933 60.3203 13.98C60.4403 13.3667 60.6003 12.62 60.8003 11.74C61.0003 10.8467 61.147 10.1267 61.2403 9.58C60.747 9.62 60.3803 9.66 60.1403 9.7C60.1136 9.54 60.1003 9.32667 60.1003 9.06C60.1003 8.78 60.1203 8.55333 60.1603 8.38H61.4203C61.527 7.66 61.5803 6.98 61.5803 6.34L61.5603 5.72V5.66C62.6003 5.3 63.5803 5.12 64.5003 5.12C64.5536 5.38667 64.5803 5.72 64.5803 6.12C64.5803 6.52 64.467 7.27333 64.2403 8.38H66.1803Z" fill="#224A2C"/>
</svg>
