<svg width="20" height="20" viewBox="0 0 20 20" fill="none" xmlns="http://www.w3.org/2000/svg">
<path d="M1.66663 18.3334V3.33335C1.66663 2.87502 1.82996 2.4828 2.15663 2.15669C2.48329 1.83058 2.87551 1.66724 3.33329 1.66669H16.6666C17.125 1.66669 17.5175 1.83002 17.8441 2.15669C18.1708 2.48335 18.3338 2.87558 18.3333 3.33335V13.3334C18.3333 13.7917 18.1702 14.1842 17.8441 14.5109C17.518 14.8375 17.1255 15.0006 16.6666 15H4.99996L1.66663 18.3334ZM7.56246 11.875L9.99996 10.3959L12.4375 11.875L11.7916 9.10419L13.9583 7.22919L11.1041 7.00002L9.99996 4.37502L8.89579 7.00002L6.04163 7.22919L8.20829 9.10419L7.56246 11.875Z" fill="#ECCB0C"/>
</svg>
