<svg width="20" height="20" viewBox="0 0 20 20" fill="none" xmlns="http://www.w3.org/2000/svg">
<g clip-path="url(#clip0_87_975)">
<path d="M11.078 1.82514e-06C11.372 1.82514e-06 11.635 0.183002 11.734 0.457002L12.44 2.414C12.693 2.477 12.91 2.54 13.094 2.606C13.295 2.678 13.554 2.787 13.874 2.936L15.518 2.066C15.6522 1.99491 15.8058 1.96925 15.9558 1.99287C16.1058 2.01649 16.2442 2.08811 16.35 2.197L17.796 3.692C17.988 3.891 18.042 4.182 17.934 4.436L17.163 6.243C17.291 6.478 17.393 6.679 17.471 6.847C17.555 7.03 17.659 7.282 17.783 7.607L19.58 8.377C19.85 8.492 20.017 8.762 19.999 9.051L19.867 11.126C19.858 11.2608 19.8096 11.39 19.7278 11.4975C19.646 11.6051 19.5345 11.6863 19.407 11.731L17.705 12.336C17.656 12.571 17.605 12.772 17.551 12.942C17.4639 13.2045 17.3645 13.4628 17.253 13.716L18.108 15.606C18.1683 15.7388 18.1846 15.8874 18.1544 16.0301C18.1241 16.1728 18.049 16.3021 17.94 16.399L16.314 17.851C16.2069 17.9462 16.0733 18.0064 15.931 18.0236C15.7888 18.0408 15.6447 18.014 15.518 17.947L13.842 17.059C13.5798 17.1978 13.3093 17.3204 13.032 17.426L12.3 17.7L11.65 19.5C11.6018 19.6318 11.5149 19.746 11.4007 19.8276C11.2865 19.9091 11.1503 19.9542 11.01 19.957L9.11 20C8.96596 20.0038 8.82429 19.9628 8.70449 19.8828C8.58468 19.8027 8.49263 19.6875 8.441 19.553L7.675 17.526C7.41365 17.4367 7.15488 17.34 6.899 17.236C6.68972 17.1454 6.4836 17.0477 6.281 16.943L4.381 17.755C4.25581 17.8084 4.11779 17.8243 3.98374 17.8007C3.8497 17.777 3.72541 17.715 3.626 17.622L2.22 16.303C2.11532 16.2052 2.04403 16.077 2.01622 15.9365C1.9884 15.796 2.00547 15.6503 2.065 15.52L2.882 13.74C2.77334 13.5292 2.67261 13.3144 2.58 13.096C2.4719 12.8287 2.37186 12.5583 2.28 12.285L0.490001 11.74C0.344502 11.696 0.217596 11.6052 0.128991 11.4817C0.0403864 11.3582 -0.00495751 11.2089 1.25819e-06 11.057L0.0700013 9.136C0.0749838 9.01066 0.114138 8.88907 0.183229 8.78438C0.252321 8.67968 0.34872 8.59587 0.462001 8.542L2.34 7.64C2.427 7.321 2.503 7.073 2.57 6.892C2.66434 6.65025 2.76911 6.41269 2.884 6.18L2.07 4.46C2.00823 4.32938 1.98947 4.18254 2.01642 4.04059C2.04337 3.89864 2.11465 3.76889 2.22 3.67L3.624 2.344C3.72242 2.25117 3.84557 2.18876 3.97863 2.16428C4.11169 2.1398 4.24898 2.15429 4.374 2.206L6.272 2.99C6.482 2.85 6.672 2.737 6.844 2.646C7.049 2.537 7.323 2.423 7.668 2.3L8.328 0.459002C8.3768 0.32427 8.46599 0.207883 8.58339 0.125733C8.7008 0.0435827 8.84071 -0.000326251 8.984 1.82514e-06H11.078ZM10.024 7.019C8.357 7.019 7.006 8.354 7.006 10.002C7.006 11.65 8.357 12.986 10.024 12.986C11.69 12.986 13.041 11.65 13.041 10.002C13.041 8.354 11.691 7.019 10.024 7.019Z" fill="#224A2C"/>
</g>
<defs>
<clipPath id="clip0_87_975">
<rect width="20" height="20" fill="white"/>
</clipPath>
</defs>
</svg>
