<svg width="50" height="44" viewBox="0 0 50 44" fill="none" xmlns="http://www.w3.org/2000/svg">
<g clip-path="url(#clip0_87_849)">
<path d="M0 18C0 6.95431 8.95431 -2 20 -2H50V46H20C8.9543 46 0 37.0457 0 26V18Z" fill="#224A2C"/>
<path d="M19.2 25.54L19.32 22.14C18.04 21.98 16.9667 21.5467 16.1 20.84C15.2333 20.1333 14.8 19.1867 14.8 18C14.8 17.0267 15.28 16.0867 16.24 15.18C17.2 14.26 18.3467 13.8 19.68 13.8C21.64 13.8 22.62 15.0733 22.62 17.62C22.62 18.3667 22.5667 19.5133 22.46 21.06C22.3667 22.5933 22.32 23.7533 22.32 24.54C22.32 25.3267 22.5333 25.72 22.96 25.72C23.2133 25.72 23.58 25.5067 24.06 25.08C24.5533 24.64 24.9667 24.1667 25.3 23.66C25.5933 20.6467 25.74 18.8467 25.74 18.26C25.74 17.6733 25.7333 17.2733 25.72 17.06C25.72 16.8467 25.7067 16.64 25.68 16.44C25.6667 16.24 25.6533 16.0933 25.64 16C25.64 15.8933 25.6133 15.7533 25.56 15.58C25.52 15.4067 25.4933 15.3067 25.48 15.28C25.48 15.2533 25.4467 15.14 25.38 14.94C25.3267 14.74 25.3 14.6333 25.3 14.62C25.98 14.26 27.0933 13.9867 28.64 13.8V13.82C28.7867 14.2867 28.86 14.96 28.86 15.84C28.86 16.7067 28.7267 18.22 28.46 20.38C28.1933 22.54 28.06 23.9733 28.06 24.68C28.06 25.3733 28.26 25.72 28.66 25.72C29.0733 25.72 29.5667 25.36 30.14 24.64C30.7267 23.92 31.26 22.98 31.74 21.82C32.2333 20.66 32.54 19.5333 32.66 18.44C32.66 17.36 32.0933 16.1133 30.96 14.7C31.2267 14.1267 31.5733 13.6133 32 13.16C32.4267 12.6933 32.7867 12.3733 33.08 12.2L33.52 11.92C34.0133 11.92 34.4333 12.2733 34.78 12.98C35.14 13.6733 35.32 14.4933 35.32 15.44C35.32 16.3733 35.0667 17.58 34.56 19.06C34.0533 20.5267 33.4133 21.94 32.64 23.3C31.88 24.66 30.98 25.8267 29.94 26.8C28.9133 27.76 27.9333 28.24 27 28.24C26.52 28.24 26.1 28 25.74 27.52C25.38 27.04 25.1933 26.4267 25.18 25.68C24.6067 26.48 24 27.1067 23.36 27.56C22.72 28.0133 22.08 28.24 21.44 28.24C20.8 28.24 20.2667 27.98 19.84 27.46C19.4133 26.94 19.2 26.3 19.2 25.54ZM19.5 17.66C19.5 16.8333 19.42 16.2733 19.26 15.98C19.1133 15.6733 18.82 15.52 18.38 15.52C17.9533 15.52 17.4533 15.76 16.88 16.24C16.32 16.72 16.04 17.3467 16.04 18.12C16.04 18.8933 16.3733 19.5333 17.04 20.04C17.72 20.5467 18.5067 20.8 19.4 20.8C19.4667 19.5333 19.5 18.4867 19.5 17.66Z" fill="#FFEF94"/>
</g>
<defs>
<clipPath id="clip0_87_849">
<rect width="50" height="44" fill="white"/>
</clipPath>
</defs>
</svg>
